<?xml version="1.0" encoding="iso-8859-1"?>
<!-- Generator: Adobe Illustrator 19.0.0, SVG Export Plug-In . SVG Version: 6.00 Build 0)  -->
<svg version="1.1" id="Capa_1" xmlns="http://www.w3.org/2000/svg" xmlns:xlink="http://www.w3.org/1999/xlink" x="0px" y="0px"
	 viewBox="0 0 512 512" style="enable-background:new 0 0 512 512;" xml:space="preserve">
<path style="fill:#579ADD;" d="M217.485,226.847c18.977,0,31.904,13.108,31.904,31.176v46.512c0,1.206-0.978,2.183-2.183,2.183H230
	c-1.206,0-2.183-0.978-2.183-2.183V262.02c0-10.387-9.236-16.596-18.161-16.596c-11.548,0-17.785,8.552-17.785,16.596v42.516
	c0,1.206-0.978,2.183-2.183,2.183h-17.2c-1.206,0-2.183-0.978-2.183-2.183v-74.189c0-1.206,0.978-2.183,2.183-2.183h17.206
	c1.206,0,2.183,0.978,2.183,2.183l-0.003,9.071l0.005-0.005l-0.005,0.016C198.153,231.038,208.441,226.847,217.485,226.847"/>
<g>
	<path style="fill:#4987CE;" d="M238.905,304.531v-42.516c0-10.388-9.236-16.596-18.16-16.596c-2.059,0-3.942,0.282-5.658,0.775
		c6.884,1.952,12.732,7.558,12.732,15.821v42.516c0,1.205,0.977,2.182,2.183,2.182h11.086
		C239.882,306.713,238.905,305.737,238.905,304.531z"/>
	<path style="fill:#4987CE;" d="M181.392,304.531v-74.189c0-1.205,0.977-2.182,2.183-2.182h-11.086
		c-1.205,0-2.183,0.977-2.183,2.182v74.189c0,1.205,0.977,2.182,2.183,2.182h11.086
		C182.368,306.713,181.392,305.737,181.392,304.531z"/>
</g>
<path style="fill:#579ADD;" d="M404.224,228.161h19.85c1.554,0,2.609,1.576,2.019,3.013l-30.523,74.165
	c-0.338,0.818-1.134,1.351-2.019,1.351h-20.713c-0.884,0-1.681-0.533-2.019-1.351l-30.523-74.165
	c-0.59-1.436,0.464-3.013,2.019-3.013h19.856c0.917,0,1.736,0.574,2.052,1.436l16.926,46.446c0.698,1.914,3.403,1.914,4.1,0
	l16.926-46.446C402.485,228.735,403.306,228.161,404.224,228.161z"/>
<path style="fill:#4987CE;" d="M381.908,305.34l-30.524-74.164c-0.592-1.436,0.465-3.013,2.018-3.013h-11.086
	c-1.553,0-2.609,1.576-2.018,3.013l30.524,74.164c0.337,0.818,1.134,1.352,2.018,1.352h11.086
	C383.042,306.691,382.245,306.157,381.908,305.34z"/>
<path style="fill:#579ADD;" d="M105.912,251.829c3.675-4.932,9.524-7.827,16.591-7.827c6.833,0,12.218,3.43,15.492,8.714
	c0.717,1.156,0.255,2.68-1,3.202l-32.684,13.559c-1.414,0.588-2.974-0.431-3.024-1.961
	C101.076,260.966,103.007,255.729,105.912,251.829 M148.645,283.557c-0.758-0.582-1.813-0.604-2.593-0.049
	c-8.291,5.924-13.369,7.377-21.246,7.377c-5.797,0-10.62-1.401-14.41-3.935c-1.447-0.967-1.222-3.167,0.387-3.834l50.184-20.817
	c0.931-0.387,1.494-1.365,1.321-2.359c-1.376-7.838-4.504-14.827-9.148-20.232c-7.245-8.415-17.969-12.867-31.028-12.867
	c-54.331,0-57.387,81.212,2.376,81.212c13.473,0,27.224-5.894,34.752-13.155c0.969-0.934,0.898-2.502-0.168-3.323L148.645,283.557z"
	/>
<path style="fill:#4987CE;" d="M127.853,227.153c-1.861-0.202-3.772-0.315-5.744-0.315c-54.331,0-57.388,81.211,2.377,81.211
	c1.768,0,3.539-0.107,5.301-0.299C78.055,302.51,80.259,232.619,127.853,227.153z"/>
<path style="fill:#579ADD;" d="M78.45,289.09v15.443c0,1.206-0.978,2.183-2.183,2.183H9.74c-1.206,0-2.183-0.978-2.183-2.183
	v-97.681c0-1.206,0.978-2.183,2.183-2.183h17.5c1.206,0,2.183,0.978,2.183,2.183v77.875c0,1.206,0.978,2.183,2.183,2.183h44.661
	C77.473,286.91,78.45,287.885,78.45,289.09z"/>
<path style="fill:#4987CE;" d="M18.645,304.531V206.85c0-1.205,0.977-2.182,2.182-2.182H9.741c-1.205,0-2.182,0.977-2.182,2.182
	v97.682c0,1.205,0.977,2.182,2.182,2.182h11.086C19.623,306.713,18.645,305.737,18.645,304.531z"/>
<path style="fill:#579ADD;" d="M466.066,245.325c-12.045,0-20.792,9.129-20.792,22.116c0,12.4,9.266,22.116,21.081,22.116
	c12.051,0,20.792-9.381,20.792-22.116C487.147,255.038,477.886,245.325,466.066,245.325 M466.066,308.037
	c-23.591,0-42.074-17.574-42.074-40.599c0-22.767,18.612-40.599,42.365-40.599c23.591,0,42.071,17.574,42.071,40.599
	C508.425,290.2,489.816,308.037,466.066,308.037"/>
<g>
	<path style="fill:#4987CE;" d="M471.974,288.802c1.743,0.475,3.568,0.751,5.471,0.751c12.051,0,20.793-9.38,20.793-22.115
		c0-12.4-9.261-22.115-21.082-22.115c-1.984,0-3.867,0.27-5.648,0.742c9.098,2.46,15.644,10.957,15.644,21.373
		C487.151,278.089,481.025,286.369,471.974,288.802z"/>
	<path style="fill:#4987CE;" d="M435.08,267.438c0-20.96,15.781-37.728,36.822-40.256c-1.812-0.218-3.66-0.343-5.544-0.343
		c-23.752,0-42.364,17.833-42.364,40.599c0,23.025,18.484,40.599,42.075,40.599c1.884,0,3.73-0.124,5.542-0.343
		C450.734,305.182,435.08,288.624,435.08,267.438z"/>
</g>
<path style="fill:#579ADD;" d="M299.998,245.325c-12.045,0-20.79,9.129-20.79,22.116c0,12.4,9.261,22.116,21.081,22.116
	c12.045,0,20.79-9.381,20.79-22.116C321.079,255.038,311.818,245.325,299.998,245.325 M299.998,308.037
	c-23.591,0-42.071-17.574-42.071-40.599c0-22.767,18.606-40.599,42.365-40.599c23.585,0,42.071,17.574,42.071,40.599
	C342.363,290.2,323.751,308.037,299.998,308.037"/>
<g>
	<path style="fill:#4987CE;" d="M269.01,267.438c0-20.96,15.778-37.728,36.821-40.256c-1.812-0.218-3.66-0.343-5.543-0.343
		c-23.757,0-42.364,17.833-42.364,40.599c0,23.025,18.48,40.599,42.071,40.599c1.884,0,3.73-0.124,5.542-0.343
		C284.66,305.182,269.01,288.624,269.01,267.438z"/>
	<path style="fill:#4987CE;" d="M305.902,288.802c1.743,0.475,3.569,0.751,5.472,0.751c12.046,0,20.789-9.38,20.789-22.115
		c0-12.4-9.261-22.115-21.082-22.115c-1.984,0-3.867,0.27-5.648,0.742c9.098,2.46,15.644,10.957,15.644,21.373
		C321.076,278.089,314.95,286.369,305.902,288.802z"/>
</g>
<path d="M106.961,275.343l30.75-12.757c2.203-0.913,3.93-2.723,4.738-4.967c0.805-2.233,0.633-4.717-0.478-6.818
	c-4.211-7.956-11.985-12.705-20.797-12.705c-8.367,0-15.841,3.593-20.508,9.859c-4.185,5.619-6.057,12.621-5.413,20.251
	c0.229,2.696,1.743,5.144,4.052,6.55c1.342,0.817,2.874,1.233,4.412,1.233C104.818,275.987,105.922,275.774,106.961,275.343z
	 M120.842,253.217l-7.52,3.12C115.104,254.359,117.681,253.286,120.842,253.217z"/>
<path d="M271.646,267.077c0,16.64,12.58,29.674,28.641,29.674c16.161,0,28.348-12.757,28.348-29.674
	c0-16.64-12.58-29.674-28.641-29.674C283.568,237.403,271.646,249.882,271.646,267.077z M299.994,252.52
	c7.583,0,13.523,6.394,13.523,14.556c0,8.571-5.44,14.556-13.23,14.556c-7.583,0-13.523-6.394-13.523-14.556
	C286.764,258.37,292.081,252.52,299.994,252.52z"/>
<path d="M466.068,237.403c-16.428,0-28.352,12.479-28.352,29.674c0,16.64,12.58,29.674,28.641,29.674
	c16.163,0,28.352-12.757,28.352-29.674C494.709,250.437,482.129,237.403,466.068,237.403z M466.359,281.633
	c-7.583,0-13.523-6.394-13.523-14.556c0-8.707,5.318-14.556,13.234-14.556c7.583,0,13.523,6.394,13.523,14.556
	C479.592,275.647,474.15,281.633,466.359,281.633z"/>
<path d="M507.703,277.919c-3.749-1.84-8.277-0.295-10.118,3.451c-5.682,11.564-17.757,18.747-31.516,18.747
	c-19.677,0-34.516-14.205-34.516-33.04c0-18.527,15.288-33.04,34.805-33.04c13.715,0,25.7,7.16,31.278,18.686
	c1.819,3.758,6.341,5.331,10.097,3.511c3.758-1.818,5.33-6.339,3.511-10.097c-8.125-16.789-25.323-27.218-44.886-27.218
	c-12.246,0-23.332,4.049-31.929,10.864c0.301-2.023-0.149-4.108-1.316-5.85c-1.547-2.31-4.13-3.689-6.91-3.689h-22.972
	c-3.482,0-6.623,2.198-7.816,5.469c0,0,0,0,0,0.001l-12.216,33.522l-12.216-33.523c-1.193-3.271-4.334-5.469-7.815-5.469h-22.977
	c-2.781,0-5.363,1.379-6.91,3.689c-1.145,1.708-1.597,3.747-1.33,5.735c-3.347-2.635-7.096-4.872-11.207-6.625
	c-3.843-1.638-8.281,0.148-9.918,3.988c-1.638,3.84,0.147,8.28,3.987,9.918c12.327,5.257,19.986,16.802,19.986,30.13
	c0,18.527-15.288,33.04-34.804,33.04c-19.674,0-34.512-14.205-34.512-33.04c0-13.181,7.672-24.688,20.023-30.032
	c3.832-1.658,5.594-6.108,3.935-9.939c-1.657-3.83-6.104-5.595-9.938-3.936c-10.9,4.717-19.289,12.764-24.21,22.673
	c-4.734-16.124-19.19-26.921-37.805-26.921c-6.796,0-13.534,1.82-19.421,5.068c-1.49-2.258-4.05-3.75-6.95-3.75h-20.052
	c-4.587,0-8.319,3.732-8.319,8.318v11.134c-1.174-1.87-2.468-3.636-3.881-5.279c-8.728-10.136-21.438-15.494-36.756-15.494
	c-28.027,0-49.161,20.707-49.161,48.166c0,4.152,0.491,8.13,1.406,11.903H36.981v-73.922c0-4.587-3.731-8.318-8.318-8.318H8.319
	c-4.587,0-8.319,3.732-8.319,8.318v100.528c0,4.587,3.732,8.318,8.319,8.318h69.372c4.587,0,8.319-3.732,8.319-8.318v-5.445
	c9.218,9.445,22.703,15.1,38.477,15.1c13.664,0,28.697-5.506,38.26-13.715v4.061c0,4.587,3.732,8.318,8.319,8.318h20.048
	c4.587,0,8.319-3.732,8.319-8.318v-43.941c0-3.632,2.723-9.037,10.227-9.037c4.402,0,10.603,2.804,10.603,9.037v43.939
	c0,4.587,3.731,8.318,8.318,8.318h20.052c4.587,0,8.319-3.732,8.319-8.318v-14.222c8.493,14.373,24.412,23.864,43.045,23.864
	c25.87,0,46.546-18.072,49.536-42.127l14.664,35.63c1.289,3.129,4.308,5.151,7.692,5.151h22.62c3.384,0,6.404-2.022,7.693-5.152
	l14.63-35.548c3.008,24.015,23.547,42.045,49.239,42.045c19.566,0,36.842-10.421,45.084-27.198
	C512.994,284.29,511.45,279.76,507.703,277.919z M70.892,298.794H15.118v-86.929h6.747v73.922c0,4.587,3.731,8.318,8.318,8.318
	h40.71V298.794z M124.486,300.129c-21.784,0-36.421-13.279-36.421-33.045c0-18.841,14.635-33.048,34.043-33.048
	c10.783,0,19.531,3.541,25.296,10.236c2.908,3.38,5.105,7.611,6.477,12.419l-48.28,20.028c-2.673,1.112-4.547,3.479-5.015,6.335
	c-0.468,2.862,0.558,5.711,2.741,7.619c5.541,4.847,12.967,7.408,21.477,7.408c8.643,0,14.773-1.711,22.311-6.527l1.849,1.422
	C142.66,296.974,133.716,300.129,124.486,300.129z M136.652,280.205c-1.71,0.934-3.252,1.567-4.792,1.988L136.652,280.205z
	 M152.408,276.555c-0.001,0-0.001,0-0.002-0.001c-0.988-0.759-2.115-1.266-3.29-1.519l13.629-5.654v15.121L152.408,276.555z
	 M184.313,261.655v37.139h-6.449v-63.436h6.45l-0.001,3.599c-0.043,2.925,1.621,5.679,4.36,6.958
	c0.409,0.19,0.827,0.343,1.251,0.456C186.281,250.751,184.313,256.244,184.313,261.655z M241.831,298.794h-6.453v-37.139
	c0-15.12-13.078-24.155-25.72-24.155c-1.996,0-3.891,0.195-5.679,0.558c3.985-2.539,8.774-4.018,13.507-4.018
	c14.561,0,24.345,9.491,24.345,23.618v41.136H241.831z M409.62,230.89L409.62,230.89c-0.002,0.004-0.003,0.007-0.004,0.011
	L409.62,230.89z M389.953,298.772h-13.511l-26.098-63.411h8.065l16.977,46.587c1.195,3.268,4.335,5.464,7.814,5.464
	c3.479,0,6.618-2.196,7.816-5.47l16.975-46.581h8.061L389.953,298.772z"/>
<g>
</g>
<g>
</g>
<g>
</g>
<g>
</g>
<g>
</g>
<g>
</g>
<g>
</g>
<g>
</g>
<g>
</g>
<g>
</g>
<g>
</g>
<g>
</g>
<g>
</g>
<g>
</g>
<g>
</g>
</svg>
